<svg width="98" height="47" viewBox="0 0 98 47" fill="none" xmlns="http://www.w3.org/2000/svg">
<line x1="15.7219" y1="1.01746" x2="2.72185" y2="23.0175" stroke="#FF338F" stroke-width="4"/>
<line x1="27.8173" y1="12.6128" x2="12.8173" y2="1.61281" stroke="#FF338F" stroke-width="4"/>
<line x1="27" y1="45" x2="27" y2="23" stroke="#FF338F" stroke-width="4"/>
<line x1="1.33509" y1="19.5109" x2="30.3351" y2="45.5109" stroke="#FF338F" stroke-width="4"/>
<path d="M37.152 31.112C36.288 31.112 35.5093 30.9253 34.816 30.552C34.1227 30.1787 33.5787 29.6613 33.184 29C32.8 28.328 32.608 27.5707 32.608 26.728C32.608 25.8853 32.8 25.1333 33.184 24.472C33.5787 23.8107 34.1227 23.2933 34.816 22.92C35.5093 22.5467 36.288 22.36 37.152 22.36C38.0267 22.36 38.8107 22.5467 39.504 22.92C40.1973 23.2933 40.736 23.8107 41.12 24.472C41.5147 25.1333 41.712 25.8853 41.712 26.728C41.712 27.5707 41.5147 28.328 41.12 29C40.736 29.6613 40.1973 30.1787 39.504 30.552C38.8107 30.9253 38.0267 31.112 37.152 31.112ZM37.152 29.4C37.888 29.4 38.496 29.1547 38.976 28.664C39.456 28.1733 39.696 27.528 39.696 26.728C39.696 25.928 39.456 25.2827 38.976 24.792C38.496 24.3013 37.888 24.056 37.152 24.056C36.416 24.056 35.808 24.3013 35.328 24.792C34.8587 25.2827 34.624 25.928 34.624 26.728C34.624 27.528 34.8587 28.1733 35.328 28.664C35.808 29.1547 36.416 29.4 37.152 29.4ZM48.4725 22.36C49.5498 22.36 50.4138 22.6747 51.0645 23.304C51.7152 23.9333 52.0405 24.8667 52.0405 26.104V31H50.0405V26.36C50.0405 25.6133 49.8645 25.0533 49.5125 24.68C49.1605 24.296 48.6592 24.104 48.0085 24.104C47.2725 24.104 46.6912 24.328 46.2645 24.776C45.8378 25.2133 45.6245 25.848 45.6245 26.68V31H43.6245V22.456H45.5285V23.56C45.8592 23.1653 46.2752 22.8667 46.7765 22.664C47.2778 22.4613 47.8432 22.36 48.4725 22.36ZM58.0496 20.632C57.207 20.632 56.7856 21.0907 56.7856 22.008V22.52H59.1376V24.12H56.8496V31H54.8496V24.12H53.4416V22.52H54.8496V21.976C54.8496 21.0587 55.1163 20.3387 55.6496 19.816C56.183 19.2827 56.935 19.016 57.9056 19.016C58.6736 19.016 59.2763 19.1707 59.7136 19.48L59.1536 20.984C58.8123 20.7493 58.4443 20.632 58.0496 20.632ZM68.3909 26.776C68.3909 26.9147 68.3802 27.112 68.3589 27.368H61.6549C61.7722 27.9973 62.0762 28.4987 62.5669 28.872C63.0682 29.2347 63.6869 29.416 64.4229 29.416C65.3615 29.416 66.1349 29.1067 66.7429 28.488L67.8149 29.72C67.4309 30.1787 66.9455 30.5253 66.3589 30.76C65.7722 30.9947 65.1109 31.112 64.3749 31.112C63.4362 31.112 62.6095 30.9253 61.8949 30.552C61.1802 30.1787 60.6255 29.6613 60.2309 29C59.8469 28.328 59.6549 27.5707 59.6549 26.728C59.6549 25.896 59.8415 25.1493 60.2149 24.488C60.5989 23.816 61.1269 23.2933 61.7989 22.92C62.4709 22.5467 63.2282 22.36 64.0709 22.36C64.9029 22.36 65.6442 22.5467 66.2949 22.92C66.9562 23.2827 67.4682 23.8 67.8309 24.472C68.2042 25.1333 68.3909 25.9013 68.3909 26.776ZM64.0709 23.96C63.4309 23.96 62.8869 24.152 62.4389 24.536C62.0015 24.9093 61.7349 25.4107 61.6389 26.04H66.4869C66.4015 25.4213 66.1402 24.92 65.7029 24.536C65.2655 24.152 64.7215 23.96 64.0709 23.96ZM72.952 31.112C72.2587 31.112 71.5813 31.0213 70.92 30.84C70.2587 30.6587 69.7307 30.4293 69.336 30.152L70.104 28.632C70.488 28.888 70.9467 29.096 71.48 29.256C72.024 29.4053 72.5573 29.48 73.08 29.48C74.2747 29.48 74.872 29.1653 74.872 28.536C74.872 28.2373 74.7173 28.0293 74.408 27.912C74.1093 27.7947 73.624 27.6827 72.952 27.576C72.248 27.4693 71.672 27.3467 71.224 27.208C70.7867 27.0693 70.4027 26.8293 70.072 26.488C69.752 26.136 69.592 25.6507 69.592 25.032C69.592 24.2213 69.928 23.576 70.6 23.096C71.2827 22.6053 72.2 22.36 73.352 22.36C73.9387 22.36 74.5253 22.4293 75.112 22.568C75.6987 22.696 76.1787 22.872 76.552 23.096L75.784 24.616C75.0587 24.1893 74.2427 23.976 73.336 23.976C72.7493 23.976 72.3013 24.0667 71.992 24.248C71.6933 24.4187 71.544 24.648 71.544 24.936C71.544 25.256 71.704 25.4853 72.024 25.624C72.3547 25.752 72.8613 25.8747 73.544 25.992C74.2267 26.0987 74.7867 26.2213 75.224 26.36C75.6613 26.4987 76.0347 26.7333 76.344 27.064C76.664 27.3947 76.824 27.864 76.824 28.472C76.824 29.272 76.4773 29.912 75.784 30.392C75.0907 30.872 74.1467 31.112 72.952 31.112ZM81.1864 31.112C80.493 31.112 79.8157 31.0213 79.1544 30.84C78.493 30.6587 77.965 30.4293 77.5704 30.152L78.3384 28.632C78.7224 28.888 79.181 29.096 79.7144 29.256C80.2584 29.4053 80.7917 29.48 81.3144 29.48C82.509 29.48 83.1064 29.1653 83.1064 28.536C83.1064 28.2373 82.9517 28.0293 82.6424 27.912C82.3437 27.7947 81.8584 27.6827 81.1864 27.576C80.4824 27.4693 79.9064 27.3467 79.4584 27.208C79.021 27.0693 78.637 26.8293 78.3064 26.488C77.9864 26.136 77.8264 25.6507 77.8264 25.032C77.8264 24.2213 78.1624 23.576 78.8344 23.096C79.517 22.6053 80.4344 22.36 81.5864 22.36C82.173 22.36 82.7597 22.4293 83.3464 22.568C83.933 22.696 84.413 22.872 84.7864 23.096L84.0184 24.616C83.293 24.1893 82.477 23.976 81.5704 23.976C80.9837 23.976 80.5357 24.0667 80.2264 24.248C79.9277 24.4187 79.7784 24.648 79.7784 24.936C79.7784 25.256 79.9384 25.4853 80.2584 25.624C80.589 25.752 81.0957 25.8747 81.7784 25.992C82.461 26.0987 83.021 26.2213 83.4584 26.36C83.8957 26.4987 84.269 26.7333 84.5784 27.064C84.8984 27.3947 85.0584 27.864 85.0584 28.472C85.0584 29.272 84.7117 29.912 84.0184 30.392C83.325 30.872 82.381 31.112 81.1864 31.112ZM86.9728 19.8H89.0528V31H86.9728V19.8ZM97.0261 30.536C96.7915 30.728 96.5035 30.872 96.1621 30.968C95.8315 31.064 95.4795 31.112 95.1061 31.112C94.1675 31.112 93.4421 30.8667 92.9301 30.376C92.4181 29.8853 92.1621 29.1707 92.1621 28.232V24.12H90.7541V22.52H92.1621V20.568H94.1621V22.52H96.4501V24.12H94.1621V28.184C94.1621 28.6 94.2635 28.92 94.4661 29.144C94.6688 29.3573 94.9621 29.464 95.3461 29.464C95.7941 29.464 96.1675 29.3467 96.4661 29.112L97.0261 30.536Z" fill="#FF338F"/>
</svg>
